<?xml version="1.0" standalone="no"?>
<!DOCTYPE svg PUBLIC "-//W3C//DTD SVG 20010904//EN"
 "http://www.w3.org/TR/2001/REC-SVG-20010904/DTD/svg10.dtd">
<svg version="1.0" xmlns="http://www.w3.org/2000/svg"
 width="300.000000pt" height="300.000000pt" viewBox="0 0 300.000000 300.000000"
 preserveAspectRatio="xMidYMid meet">
<metadata>
Created by potrace 1.10, written by Peter Selinger 2001-2011
</metadata>
<g transform="translate(0.000000,300.000000) scale(0.100000,-0.100000)"
fill="#000000" stroke="none">
<path d="M1318 2799 c-10 -5 -41 -12 -70 -15 -29 -3 -57 -9 -62 -15 -6 -5 -24
-9 -41 -9 -17 0 -50 -9 -73 -20 -22 -11 -47 -20 -55 -20 -7 0 -22 -7 -33 -15
-10 -8 -27 -15 -36 -15 -10 0 -18 -4 -18 -10 0 -5 -8 -10 -18 -10 -11 0 -32
-11 -48 -25 -16 -14 -37 -25 -46 -25 -10 0 -18 -4 -18 -10 0 -5 -16 -16 -35
-24 -19 -8 -35 -19 -35 -23 0 -5 -15 -17 -32 -28 -67 -39 -261 -247 -290 -310
-6 -14 -15 -25 -20 -25 -4 0 -8 -7 -8 -16 0 -8 -11 -30 -25 -48 -14 -18 -25
-38 -25 -45 0 -12 -17 -45 -36 -71 -6 -8 -14 -31 -18 -50 -3 -19 -13 -48 -21
-64 -8 -15 -15 -43 -15 -60 0 -18 -5 -37 -10 -42 -6 -6 -13 -28 -15 -50 -3
-21 -8 -50 -12 -64 -13 -50 -15 -305 -3 -365 7 -33 14 -72 16 -87 1 -15 8 -36
13 -47 6 -11 11 -31 11 -44 0 -14 7 -38 15 -53 8 -16 18 -45 21 -64 4 -19 12
-42 18 -50 18 -24 36 -59 36 -69 0 -14 77 -136 129 -206 117 -155 349 -342
477 -386 22 -7 44 -18 49 -24 6 -6 36 -17 68 -25 31 -7 57 -17 57 -21 0 -4 17
-9 38 -12 20 -3 71 -13 112 -22 94 -21 335 -31 409 -16 31 6 71 13 90 16 19 3
42 10 52 15 10 6 29 10 42 10 26 0 103 28 180 66 27 13 54 24 59 24 6 0 26 11
44 25 18 14 38 25 44 25 6 0 16 5 23 10 7 6 44 34 82 62 89 66 197 174 263
263 28 39 56 75 61 81 6 7 17 27 25 45 9 19 20 41 25 49 39 66 101 228 101
267 0 17 4 33 9 35 6 2 13 26 16 53 4 28 9 61 13 75 11 45 12 329 1 358 -9 23
-18 75 -21 120 -1 6 -5 12 -10 12 -4 0 -8 19 -8 43 0 23 -7 51 -15 61 -8 11
-15 26 -15 33 0 17 -67 160 -91 195 -11 14 -19 33 -19 42 0 9 -4 16 -9 16 -5
0 -13 9 -16 20 -4 11 -16 31 -29 44 -12 14 -33 39 -46 58 -59 79 -270 268
-300 268 -6 0 -13 7 -16 15 -4 8 -13 15 -22 15 -8 0 -30 11 -48 25 -18 14 -40
25 -48 25 -9 0 -16 5 -16 10 0 6 -7 10 -16 10 -8 0 -25 5 -37 12 -32 18 -89
38 -110 38 -10 0 -15 5 -12 10 4 6 -8 10 -30 10 -20 0 -44 4 -54 9 -9 5 -35
12 -57 15 -50 6 -66 10 -80 18 -16 11 -337 8 -356 -3z m342 -19 c3 -3 39 -11
80 -18 41 -7 76 -17 78 -21 2 -5 12 -6 24 -3 16 4 19 2 13 -9 -8 -12 -6 -12 8
0 11 9 17 10 17 2 0 -6 9 -11 20 -11 32 0 280 -117 280 -132 0 -4 6 -8 13 -8
7 0 23 -10 37 -23 14 -12 39 -31 55 -41 86 -54 294 -283 295 -323 0 -7 4 -13
8 -13 11 0 132 -254 132 -275 0 -8 4 -23 9 -33 14 -27 38 -139 40 -190 1 -7 4
-11 9 -9 15 10 5 -306 -13 -393 -34 -165 -30 -151 -73 -260 -14 -36 -29 -69
-34 -74 -4 -6 -8 -18 -8 -28 0 -10 -5 -18 -12 -18 -6 0 -8 -3 -5 -7 11 -10
-13 -33 -34 -33 -23 0 -26 38 -4 46 8 4 15 12 15 19 0 7 7 18 15 25 8 7 12 16
9 21 -2 5 2 19 11 32 14 22 14 26 0 37 -13 11 -15 9 -15 -13 0 -14 -5 -29 -10
-32 -6 -3 -19 -27 -31 -52 -11 -25 -29 -55 -40 -66 -10 -12 -19 -26 -19 -32 0
-6 -8 -20 -18 -31 -10 -10 -28 -35 -42 -54 -37 -54 -159 -178 -215 -218 -27
-20 -52 -39 -55 -43 -7 -10 -72 -48 -92 -55 -10 -4 -18 -10 -18 -15 0 -5 -7
-9 -15 -9 -9 0 -33 -11 -55 -25 -22 -14 -48 -25 -59 -25 -11 0 -22 -4 -25 -9
-3 -4 -27 -14 -53 -20 -27 -7 -59 -17 -73 -23 -14 -5 -47 -12 -75 -15 -27 -3
-57 -9 -65 -13 -24 -13 -337 -13 -345 0 -3 5 -27 10 -53 10 -26 0 -56 6 -67
13 -11 7 -33 14 -50 16 -16 2 -48 12 -69 22 -22 10 -46 19 -53 19 -7 0 -31 11
-53 25 -22 14 -46 25 -55 25 -8 0 -15 4 -15 9 0 5 -8 11 -17 15 -26 8 -86 46
-130 81 -111 88 -164 143 -260 270 -33 43 -83 128 -83 140 0 9 -7 18 -15 21
-8 4 -13 9 -10 14 2 4 -2 16 -10 26 -8 10 -15 29 -15 42 0 12 -4 22 -8 22 -9
0 -40 106 -71 243 -14 62 -14 333 0 394 24 105 41 169 50 185 5 10 9 27 9 38
0 11 5 20 10 20 6 0 10 11 10 24 0 13 7 29 15 36 9 7 13 15 11 18 -6 6 54 116
65 120 5 2 9 8 9 14 0 40 182 241 289 322 31 22 58 44 59 49 2 4 12 7 22 7 11
0 23 6 27 13 4 6 35 26 68 44 33 17 59 36 58 41 -1 4 11 6 28 4 20 -3 29 0 29
9 0 8 12 15 28 15 15 1 43 6 62 12 45 14 107 30 143 37 15 3 27 10 27 15 0 13
-101 3 -114 -11 -6 -5 -20 -9 -33 -9 -13 0 -31 -4 -41 -9 -9 -5 -35 -14 -57
-20 -55 -17 -115 -44 -115 -53 0 -5 -6 -8 -14 -8 -13 0 -106 -48 -116 -60 -3
-4 -26 -20 -51 -38 -75 -51 -250 -232 -299 -309 -25 -40 -51 -72 -59 -72 -7
-1 -11 -7 -7 -16 3 -8 1 -15 -4 -15 -6 0 -10 -6 -10 -14 0 -14 -29 -75 -40
-86 -3 -3 -5 -12 -5 -20 1 -8 -5 -24 -12 -35 -7 -11 -13 -27 -13 -36 0 -9 -6
-22 -14 -28 -7 -6 -11 -22 -8 -36 2 -14 -1 -31 -6 -38 -9 -11 -17 -51 -24
-124 -1 -7 -5 -13 -10 -13 -12 0 -10 -328 2 -350 5 -10 12 -36 15 -57 3 -21 8
-49 12 -63 3 -14 7 -34 8 -45 2 -11 10 -33 19 -50 9 -16 19 -47 22 -67 4 -21
10 -35 15 -32 5 3 9 0 9 -6 0 -14 34 -84 66 -135 13 -22 27 -47 31 -55 17 -41
238 -280 258 -280 3 0 15 -9 27 -20 12 -11 52 -39 88 -63 36 -23 66 -45 68
-49 2 -5 10 -8 18 -8 13 0 31 -8 74 -31 38 -21 86 -40 107 -41 13 -2 23 -6 23
-9 0 -9 79 -28 140 -35 25 -2 57 -9 71 -15 31 -12 303 -6 389 9 98 17 160 33
160 43 0 5 9 9 20 9 10 0 32 5 47 11 70 28 103 45 103 52 0 4 11 7 25 7 14 0
25 4 25 8 0 5 18 17 40 27 22 10 40 22 40 27 0 4 6 8 13 8 42 1 330 295 348
355 6 22 30 38 41 27 21 -21 -166 -252 -267 -330 -90 -68 -140 -102 -151 -102
-7 0 -14 -4 -16 -9 -4 -12 -169 -91 -190 -91 -10 0 -18 -4 -18 -9 0 -8 -42
-21 -120 -37 -14 -3 -34 -9 -45 -14 -74 -32 -531 -31 -551 1 -3 5 -21 9 -40 9
-19 0 -34 5 -34 11 0 5 -4 7 -10 4 -5 -3 -16 -3 -22 2 -7 4 -22 9 -32 10 -11
2 -24 7 -30 12 -6 5 -35 16 -63 25 -29 10 -53 21 -53 25 0 4 -17 13 -37 20
-37 14 -89 47 -188 122 -57 43 -155 133 -155 142 0 4 -13 19 -28 34 -16 16
-41 46 -58 68 -16 22 -31 42 -34 45 -4 3 -14 22 -23 42 -10 20 -22 40 -28 43
-15 10 -73 138 -102 225 -53 163 -70 277 -64 441 5 145 11 195 34 279 8 30 18
69 23 85 12 46 88 211 133 291 62 108 245 295 372 380 150 100 321 170 476
196 41 6 77 14 81 17 9 8 311 8 318 1z"/>
<path d="M1348 2742 c-16 -2 -28 -7 -28 -12 0 -5 84 -11 188 -13 200 -5 289
-16 302 -37 5 -9 19 -11 45 -6 24 5 35 4 31 -3 -8 -12 26 -23 48 -15 11 4 16
1 16 -10 0 -10 9 -16 24 -16 13 0 29 -7 36 -15 7 -9 15 -13 17 -11 6 5 106
-55 111 -66 2 -4 10 -8 19 -8 8 0 34 -16 57 -35 24 -19 46 -35 49 -35 11 0
159 -153 209 -217 45 -56 68 -76 68 -56 0 3 -18 30 -39 58 -22 29 -37 56 -33
60 4 5 -1 5 -11 2 -10 -4 -16 -3 -13 2 7 11 -121 134 -199 192 -33 24 -62 46
-65 49 -10 10 -50 30 -61 30 -6 0 -17 7 -26 16 -9 8 -22 13 -29 10 -8 -3 -11
0 -7 10 3 9 -2 14 -15 14 -12 0 -37 9 -56 21 -19 11 -45 21 -58 23 -13 1 -32
7 -44 14 -11 6 -32 12 -47 14 -14 2 -29 7 -33 11 -4 4 -26 7 -50 7 -24 0 -44
5 -47 13 -4 9 -6 8 -6 -2 -1 -11 -4 -11 -17 0 -13 10 -55 14 -163 14 -80 1
-158 -1 -173 -3z"/>
<path d="M1450 2413 c-30 -12 -52 -42 -61 -83 -13 -56 9 -102 61 -127 33 -17
42 -18 76 -6 39 14 74 39 74 55 0 4 -5 7 -11 6 -15 -4 -22 69 -8 78 7 4 10 -1
7 -12 -2 -10 7 -30 20 -43 13 -14 19 -27 14 -29 -5 -1 15 -28 44 -59 30 -31
54 -61 54 -68 0 -6 10 -22 23 -35 12 -14 22 -27 22 -30 0 -17 30 -90 37 -90 4
0 8 -13 8 -30 0 -16 5 -30 10 -30 6 0 10 5 10 12 0 6 3 9 6 5 3 -3 2 -12 -2
-19 -8 -13 -6 -76 3 -91 3 -4 12 -2 21 5 10 8 13 9 9 1 -12 -19 -10 -142 2
-156 15 -18 13 -337 -2 -337 -7 0 -1 -7 11 -16 22 -15 30 -44 12 -44 -5 0 -10
9 -10 20 0 35 -19 22 -25 -17 -3 -21 -10 -54 -15 -73 -15 -58 -22 -93 -23
-125 -2 -26 2 -30 26 -33 15 -2 27 0 27 3 0 4 12 50 26 103 21 79 25 114 22
194 -2 55 1 98 6 98 5 0 6 3 3 6 -3 4 -2 15 4 26 8 14 7 28 0 46 -6 15 -12 77
-14 139 -1 73 -6 116 -14 125 -7 6 -13 31 -13 55 0 24 -4 43 -10 43 -5 0 -10
18 -10 40 0 25 -4 39 -12 38 -6 -2 -12 10 -13 27 -1 16 -7 31 -13 33 -6 2 -9
9 -6 16 3 8 -2 20 -10 29 -9 9 -16 25 -16 36 0 12 -4 21 -10 21 -5 0 -10 6
-10 14 0 8 -7 16 -15 20 -8 3 -15 12 -15 20 0 17 -95 115 -113 117 -7 1 -15 1
-19 0 -5 0 -8 14 -8 32 -1 36 -14 57 -50 79 -26 15 -84 21 -110 11z m80 -47
c0 -8 5 -16 11 -18 7 -2 12 -26 13 -53 0 -28 -3 -49 -7 -47 -4 1 -25 2 -47 2
-34 0 -41 4 -46 25 -7 29 -19 32 -33 8 -6 -10 -11 -13 -11 -7 0 5 9 20 20 32
11 12 20 25 20 30 0 9 56 41 73 42 4 0 7 -6 7 -14z m270 -330 c0 -3 -4 -8 -10
-11 -5 -3 -10 -1 -10 4 0 6 5 11 10 11 6 0 10 -2 10 -4z m87 -303 c-3 -10 -5
-4 -5 12 0 17 2 24 5 18 2 -7 2 -21 0 -30z"/>
<path d="M2541 2166 c-8 -10 -9 -16 -1 -21 5 -3 19 -25 31 -48 11 -23 29 -58
39 -77 11 -19 19 -43 20 -52 0 -10 5 -18 10 -18 6 0 10 -9 10 -21 0 -11 5 -30
12 -42 6 -12 12 -35 14 -52 1 -16 7 -31 13 -33 6 -2 11 -26 11 -52 0 -27 5
-52 10 -55 6 -4 10 -82 10 -201 0 -123 -4 -194 -10 -194 -5 0 -10 -20 -10 -45
0 -25 -7 -57 -16 -70 -9 -14 -14 -31 -11 -39 3 -7 1 -18 -4 -23 -5 -5 -12 -27
-14 -48 -4 -30 -3 -37 6 -28 7 7 12 26 13 42 1 17 6 31 12 31 12 0 22 39 31
128 2 28 8 50 12 47 4 -2 9 1 10 8 6 35 6 395 0 392 -10 -7 -19 22 -19 65 0
21 -5 42 -11 46 -6 3 -9 17 -7 29 3 14 -2 28 -13 35 -9 7 -15 18 -13 25 3 6
-1 25 -7 41 -7 16 -11 35 -10 42 1 6 -2 12 -7 12 -4 0 -16 19 -26 43 -9 23
-24 55 -32 70 -9 15 -21 39 -28 53 -11 20 -15 22 -25 10z"/>
<path d="M940 2042 c-25 -8 -46 -19 -48 -24 -2 -4 -10 -8 -18 -8 -24 0 -60
-34 -100 -94 -23 -36 -26 -48 -25 -140 0 -70 4 -104 13 -111 7 -5 14 -18 16
-28 6 -35 39 -82 59 -85 31 -5 34 30 7 84 -13 26 -24 54 -24 61 0 8 -5 24 -12
36 -18 32 -19 105 -2 111 8 3 14 15 14 28 0 29 74 98 105 98 13 0 25 5 27 12
2 6 13 13 24 15 19 3 223 3 279 0 41 -3 48 34 10 51 -38 18 -268 13 -325 -6z
m113 -19 c-7 -2 -19 -2 -25 0 -7 3 -2 5 12 5 14 0 19 -2 13 -5z m75 0 c-10 -2
-26 -2 -35 0 -10 3 -2 5 17 5 19 0 27 -2 18 -5z m99 1 c-3 -3 -12 -4 -19 -1
-8 3 -5 6 6 6 11 1 17 -2 13 -5z m-407 -98 c0 -3 -4 -8 -10 -11 -5 -3 -10 -1
-10 4 0 6 5 11 10 11 6 0 10 -2 10 -4z"/>
<path d="M1880 2036 c0 -30 16 -36 95 -36 47 0 64 -4 69 -15 3 -8 13 -15 23
-15 10 0 27 -7 37 -15 10 -8 23 -12 27 -9 5 3 9 0 9 -6 0 -6 9 -20 20 -32 11
-12 20 -30 20 -40 0 -10 6 -21 13 -24 20 -7 21 -91 2 -110 -8 -9 -15 -24 -15
-35 0 -11 -4 -27 -9 -37 -5 -9 -17 -34 -26 -54 -9 -21 -20 -38 -25 -38 -6 0
-10 -7 -10 -15 0 -8 -4 -15 -10 -15 -5 0 -10 -6 -10 -13 0 -8 -11 -24 -25 -37
-25 -24 -33 -54 -15 -65 12 -8 60 5 60 16 0 5 16 32 35 59 19 27 35 54 35 60
0 5 5 10 10 10 6 0 10 9 10 19 0 11 4 21 9 23 6 2 12 16 15 33 3 16 10 31 16
33 6 2 10 43 10 98 0 91 -1 97 -35 149 -19 30 -39 55 -44 55 -5 0 -16 6 -23
13 -20 19 -60 36 -98 41 -19 3 -36 10 -38 15 -2 6 -32 11 -68 11 -61 0 -64 -1
-64 -24z m88 -13 c-10 -2 -28 -2 -40 0 -13 2 -5 4 17 4 22 1 32 -1 23 -4z"/>
<path d="M1665 2030 c-30 -7 -25 -13 20 -24 11 -2 -9 -2 -44 1 -34 3 -66 2
-70 -3 -3 -5 -33 -17 -66 -25 -34 -9 -59 -21 -58 -27 2 -7 -10 -12 -27 -12
-16 0 -30 -4 -30 -10 0 -5 -6 -10 -14 -10 -18 0 -76 -32 -76 -42 0 -5 -9 -8
-20 -8 -11 0 -20 -4 -20 -9 0 -5 -19 -19 -42 -30 -24 -11 -61 -36 -82 -56 -22
-19 -43 -35 -46 -35 -7 0 -23 -13 -86 -71 -75 -68 -204 -234 -204 -263 0 -9
-4 -16 -10 -16 -5 0 -10 -11 -10 -25 0 -14 -7 -28 -15 -31 -11 -5 -15 -22 -15
-68 0 -51 -4 -67 -22 -86 -28 -30 -48 -67 -48 -88 0 -9 9 -34 20 -56 14 -30
30 -46 61 -59 39 -17 44 -17 85 -1 24 9 44 21 44 27 0 5 6 15 14 21 14 11 19
36 17 88 -1 32 -46 78 -77 78 -11 0 -29 9 -39 20 -16 18 -17 21 -1 44 9 14 16
34 16 45 0 11 9 36 20 56 11 20 20 42 20 49 0 8 7 16 15 20 8 3 15 12 15 21 0
8 5 15 10 15 6 0 10 5 10 11 0 21 166 187 240 240 25 18 47 35 50 39 7 10 71
49 93 56 9 4 17 10 17 15 0 5 9 9 20 9 11 0 20 7 20 15 0 8 6 12 13 9 8 -3 20
2 27 11 7 8 21 15 31 15 10 0 21 5 24 10 3 6 15 10 26 10 11 0 22 7 26 16 3 8
11 13 18 10 7 -2 21 1 32 9 10 7 30 15 43 17 14 2 24 8 23 14 -1 8 13 10 40 7
50 -6 93 20 82 50 -7 18 -21 19 -70 7z m-860 -840 c7 -11 -42 -37 -51 -27 -9
9 15 37 32 37 7 0 16 -4 19 -10z m29 -46 c9 -8 16 -22 16 -30 0 -8 5 -14 10
-14 16 0 11 -23 -9 -47 -22 -26 -65 -30 -87 -9 -8 8 -14 31 -14 50 0 29 4 36
20 36 11 0 20 7 20 15 0 20 24 19 44 -1z"/>
<path d="M1447 1552 c-22 -24 -22 -95 -2 -112 21 -17 89 -18 109 -1 23 19 22
93 -2 114 -25 23 -85 22 -105 -1z m90 -16 c1 0 4 -13 8 -27 6 -23 2 -29 -24
-42 -27 -13 -31 -13 -49 3 -23 22 -19 67 7 73 13 4 50 -1 58 -7z"/>
<path d="M930 1435 c-11 -13 -7 -22 26 -58 21 -23 42 -44 45 -47 4 -3 33 -27
64 -55 71 -62 163 -125 181 -125 8 0 14 -4 14 -8 0 -5 18 -17 40 -28 22 -10
40 -22 40 -26 0 -5 9 -8 20 -8 11 0 20 -4 20 -10 0 -5 6 -10 14 -10 8 0 27 -6
43 -14 15 -8 42 -20 58 -26 17 -7 38 -16 47 -21 10 -5 27 -9 39 -9 11 0 30 -5
42 -12 92 -49 458 -49 475 0 5 17 39 15 46 -3 9 -25 82 -19 120 10 37 28 62
90 52 129 -8 33 -42 68 -87 89 -34 16 -38 15 -73 -2 -52 -27 -67 -41 -83 -79
-12 -30 -12 -37 2 -58 14 -22 38 -34 32 -16 -6 19 16 10 38 -17 32 -37 32 -46
0 -25 -14 9 -28 14 -32 10 -3 -3 -12 -1 -19 5 -9 7 -28 6 -66 -6 -66 -20 -246
-19 -294 1 -19 8 -47 14 -63 14 -16 0 -33 5 -36 10 -3 6 -18 10 -33 10 -15 0
-36 7 -46 15 -11 8 -26 15 -35 15 -13 0 -199 88 -211 100 -8 8 -43 29 -65 39
-11 5 -36 23 -55 40 -19 17 -40 31 -45 31 -6 0 -48 36 -94 80 -46 44 -89 80
-96 80 -7 0 -18 -7 -25 -15z m1334 -287 c15 -13 17 -21 9 -29 -8 -8 -13 -5
-17 9 -7 21 -32 36 -40 23 -3 -4 10 -21 29 -38 28 -26 35 -29 38 -15 3 10 5 2
6 -15 1 -34 -15 -45 -25 -18 -5 13 -11 11 -30 -10 -29 -31 -65 -30 -79 3 -5
12 -17 23 -25 23 -11 1 -10 3 3 6 21 5 23 39 2 47 -8 3 -15 12 -15 20 0 23
118 18 144 -6z m-18 -137 c-9 -8 -18 -12 -22 -9 -9 10 3 25 21 25 14 0 14 -2
1 -16z m-39 -17 c-3 -3 -12 -4 -19 -1 -8 3 -5 6 6 6 11 1 17 -2 13 -5z"/>
<path d="M1143 1049 c-7 -7 -3 -28 14 -71 83 -205 208 -318 352 -318 33 0 63
5 66 10 3 6 13 10 21 10 32 0 116 76 170 152 27 39 26 78 -3 78 -16 0 -73 -58
-73 -75 0 -13 -50 -53 -109 -87 -51 -30 -107 -36 -137 -13 -10 8 -27 15 -36
15 -10 0 -18 5 -18 10 0 6 -5 10 -10 10 -12 0 -45 34 -76 76 -10 14 -24 31
-29 38 -14 14 -55 102 -55 116 0 6 -7 22 -16 35 -17 26 -43 32 -61 14z"/>
</g>
</svg>
